# xmcd
#
# Track frame offsets:
#	150
#	8835
#	27505
#	44927
#	65725
#	82562
#	103395
#	119555
#	137990
#	154672
#
# Disc length: 2218 seconds
#
# Revision: 0
# Processed by: cddbd v1.5.2PL0 Copyright (c) Steve Scherf et al.
# Submitted via: EasyCDDAExtractor 10.0.3.1
#
DISCID=8d08a80a
DTITLE=COOL - THE [ku:l]
DYEAR=1994
DGENRE=Kpop
TTITLE0=THE [ku:l] Prologue
TTITLE1=너 이길 원했던 이유
TTITLE2=사랑의 끝
TTITLE3=이젠 (R&B)
TTITLE4=그냥 그런 이야기
TTITLE5=잊을수 있어
TTITLE6=이젠 (Reggae)
TTITLE7=자유속으로
TTITLE8=AM0432
TTITLE9=이젠(경음악)
EXTD=
EXTT0=
EXTT1=
EXTT2=
EXTT3=
EXTT4=
EXTT5=
EXTT6=
EXTT7=
EXTT8=
EXTT9=
PLAYORDER=
